<svg width="257" height="255" viewBox="0 0 257 255" fill="none" xmlns="http://www.w3.org/2000/svg">
<path d="M164 50L92.5 197.5M92.5 3.48039C88.485 4.41561 84.9264 5.65766 82 7.00004L2.5 169C5.61544 168.898 8.64964 168.901 11.6024 169M92.5 3.48039C113.409 -1.39016 146.695 2.06095 167.5 43C186.632 41.3923 229.43 46.1431 252.54 77M92.5 3.48039L11.6024 169M11.6024 169C54.9021 170.45 80.6987 192.454 88.5 204C139.552 201.843 170.462 228.068 182.609 245.5M252.54 77C253.387 78.1313 254.208 79.2976 255 80.5L186 251C185.106 249.314 183.976 247.462 182.609 245.5M252.54 77L182.609 245.5M92.5 24.5C100.333 25.8333 118.2 31.4 127 43L107 80.5L72 66L92.5 24.5ZM148.5 134L127 176.5C139.98 179.167 168.852 187.6 180.5 200L200.5 158.5C194.5 151.667 175.7 137.2 148.5 134Z" stroke="#1885AF" stroke-width="3"/>
<path d="M38 151.5C51.1667 152.667 80.3 159.7 91.5 178.5" stroke="#1885AF" stroke-width="3"/>
<path d="M47 134C60.1667 135.167 89.3 142.2 100.5 161" stroke="#1885AF" stroke-width="3"/>
<path d="M56 113C69.1667 114.167 98.3 121.2 109.5 140" stroke="#1885AF" stroke-width="3"/>
<path d="M65 93C78.1667 94.1667 107.3 101.2 118.5 120" stroke="#1885AF" stroke-width="3"/>
<path d="M155 113C168.167 114.167 197.3 121.2 208.5 140" stroke="#1885AF" stroke-width="3"/>
<path d="M163 93C176.167 94.1667 205.3 101.2 216.5 120" stroke="#1885AF" stroke-width="3"/>
<path d="M172 71C185.167 72.1667 214.3 79.2 225.5 98" stroke="#1885AF" stroke-width="3"/>
</svg>
