<svg width="240" height="326" viewBox="0 0 240 326" fill="none" xmlns="http://www.w3.org/2000/svg">
<path d="M86.5004 21.4998C-66.4837 61.5385 16.7551 235.724 121 218C294.5 188.5 214.5 -12.0001 86.5004 21.4998Z" stroke="black" stroke-width="4"/>
<path d="M134 232.446C295.457 194.034 258.959 -21.0243 84.5002 5.00005L87.5002 20.5M134 232.446C136.834 251.631 143.1 290.7 145.5 293.5C148.5 297 163.5 297.5 172 301.5C178.8 304.7 174.834 311.5 172 314.5L115 322.5C113 323.667 108.7 323.7 107.5 314.5C106 303 127 301 128.5 293.5C129.7 287.5 120 252.667 115 236C118.463 235.518 121.848 234.961 125.157 234.333M134 232.446C131.116 233.132 128.168 233.762 125.157 234.333M122.5 218L125.157 234.333" stroke="black" stroke-width="4"/>
<path d="M106.5 90C99.7002 85.6 85.6669 88.1667 79.5002 90L71.5002 92L69.0002 98.5C67.3336 100.333 63.5002 104 61.5002 104C59.5002 104 57.6669 110.333 57.0002 113.5L64.0002 120.5C65.6669 123.5 69.9002 128.7 73.5002 125.5C78.0002 121.5 82.5002 124.5 86.5002 125.5C90.5002 126.5 91.5002 134 91.5002 137C91.5002 139.4 95.5002 142 97.5002 143V152L103.5 158.5L106.5 167.5C108.834 169.167 113.5 172 113.5 170C113.5 167.5 115 166.5 117 167.5C118.6 168.3 122.334 161.833 124 158.5V145.5V129.5C124 123.9 129.667 118.167 132.5 116C134 113 136.1 106.4 132.5 104C128 101 132.5 99.5 132.5 95V87.5L124 90C121 91.8334 113.3 94.4 106.5 90Z" stroke="black" stroke-width="2"/>
<path d="M164.5 75.5C161.7 74.3 158.334 79.3333 157 82C155.167 86.1666 151 94.6 149 95C146.5 95.5 152.5 107 157 107.5C161.5 108 164.5 121.5 168.5 124.5C172.5 127.5 174.5 129.5 179.5 130.5C184.5 131.5 185.5 120.5 185.5 116C185.5 111.5 194 107 196.5 103.5C199 100 196 88.5 194 88.5C192 88.5 189.5 88.5 185.5 82C181.5 75.5 173.5 82 171 82C168.5 82 168 77 164.5 75.5Z" stroke="black" stroke-width="2"/>
<path d="M78.5004 82L67.0004 75.5H60.0002L57.5002 67.5C58.5002 64.3333 61.3002 58.6 64.5002 61C68.5002 64 69.0004 52 67.0004 49C65.4004 46.5999 66.3337 42.3333 67.0004 40.5H75.5004C77.5004 38.5 82.4004 33.7999 86.0004 30.9999C89.6004 28.1999 103.5 29.8333 110 30.9999C116.4 28.1999 122 32.1666 124 34.4999L130.5 40.5C141.7 39.3 144.5 45.6666 144.5 49L149 54C149 55.6666 147.6 58.8 142 58C136.4 57.2 132 62 130.5 64.5V70H124C122.334 71.8333 117.9 75 113.5 73C108 70.5 93.5004 75.5 90.0004 75.5C87.2004 75.5 81.1671 79.8333 78.5004 82Z" stroke="black" stroke-width="2"/>
<path d="M36.0004 53.5C32.4004 52.7 29.167 59.5 28.0004 63L23.5002 71C22.0003 72.1667 18.2004 75.8 15.0003 81C11.0003 87.5 19.5004 96 19.0004 93C18.6004 90.6 24.8337 88.6667 28.0004 88L36.0004 83.5C37.3337 81.3333 39.8004 76.5 39.0004 74.5C38.2004 72.5 43.667 71.3333 46.5004 71C48.167 68.3333 51.3004 63 50.5004 63C49.7004 63 53.167 56.6667 55.0004 53.5L62.0004 48.5V38.5H55.0004L46.5004 42.5L43.0004 48.5C42.167 50.5 39.6004 54.3 36.0004 53.5Z" stroke="black" stroke-width="2"/>
<path d="M36.0004 125C33.6004 120.6 23.667 117.833 19.0004 117L15.0003 125L21.0002 137C21.8336 142.5 23.5002 154.7 23.5002 159.5C23.5002 164.3 28.1669 169.833 30.5002 172L36.0004 169C37.0004 165.333 39.0004 157.1 39.0004 153.5C39.0004 149 46.5004 145.5 50.5004 138C53.7004 132 49.167 126.833 46.5004 125C44.0004 126.833 38.4004 129.4 36.0004 125Z" stroke="black" stroke-width="2"/>
</svg>
