<svg width="44" height="33" viewBox="0 0 44 33" fill="none" xmlns="http://www.w3.org/2000/svg">
<path d="M18.1912 15.4466L20.8751 12.7878C21.4426 12.2234 22.3581 12.2297 22.9194 12.794L25.6378 15.5281C26.2021 16.0956 26.199 17.0143 25.6284 17.5787L22.9444 20.2375C22.3769 20.7988 21.4614 20.7956 20.9002 20.2281L18.1817 17.494C17.6174 16.9265 17.6205 16.0078 18.1912 15.4466ZM41.4748 11.4427L32.3789 2.29039C29.7608 -0.343361 25.5061 -0.359038 22.8692 2.25276L28.7889 8.20692L35.8937 15.3557L35.9188 15.3808C36.549 16.0455 36.5365 17.0833 35.8843 17.7292L28.7262 24.8246L28.7011 24.8466C28.121 25.4015 27.2839 24.4954 27.8545 23.931L31.8365 19.9867C33.7334 18.1086 33.746 15.0484 31.8616 13.1577L21.4206 2.65096C18.605 -0.18032 14.0273 -0.199132 11.1898 2.6102L2.38238 11.3361C-0.461443 14.1517 -0.480255 18.7419 2.34162 21.5826L11.4406 30.7349C14.0587 33.3655 18.3134 33.3843 20.9503 30.7694L15.0307 24.8152L7.9258 17.6665L7.90071 17.6414C7.2705 16.9798 7.2799 15.9389 7.9352 15.293L15.0934 8.20065L15.1184 8.17557C15.7016 7.62373 16.5357 8.52673 15.965 9.09111L11.983 13.0355C10.0892 14.9136 10.0767 17.9737 11.9579 19.8675L22.3989 30.3712C25.2145 33.2056 29.7922 33.2244 32.6297 30.4119L41.4371 21.6892C44.281 18.8705 44.2966 14.2802 41.4748 11.4427Z" fill="#3F5EFB"/>
</svg>
