<svg width="137" height="21" viewBox="0 0 137 21" fill="none" xmlns="http://www.w3.org/2000/svg">
<path d="M9.9701 10.9202L3.49282 1.55469H0V16.4825H3.0782V6.40206L10.2274 16.4825H13.0483V1.55469H9.9701V10.9202Z" fill="#3F5EFB"/>
<path d="M18.99 2.49501C18.99 3.55791 18.318 4.23201 17.2345 4.23201C16.1267 4.23201 15.4578 3.55791 15.4578 2.49501C15.4578 1.45094 16.1267 0.754883 17.2345 0.754883C18.318 0.754883 18.99 1.45094 18.99 2.49501ZM18.8144 16.4821V5.64301H15.6545V16.4821H18.8144Z" fill="#3F5EFB"/>
<path d="M25.8194 12.8425L23.392 5.64355H20.0564L24.082 16.3604C23.628 17.6491 23.1347 18.0379 22.2266 18.0379C21.812 18.0379 21.3186 17.9751 20.8646 17.9156V20.5713C21.3186 20.6967 21.9906 20.819 22.7018 20.819C25.1687 20.819 26.452 19.6118 27.6567 16.2162L31.4068 5.64355H28.2287L25.8194 12.8425Z" fill="#3F5EFB"/>
<path d="M37.4666 5.37695C34.1522 5.37695 32.6116 7.01355 32.315 9.38715H35.4931C35.6717 8.50605 36.2044 7.95425 37.4484 7.95425C38.6531 7.95425 39.2252 8.42455 39.3826 9.59095L37.5664 9.85745C33.7558 10.4281 32.0789 11.7387 32.0789 13.946C32.0789 15.5012 33.3017 16.7491 35.4537 16.7491C37.7631 16.7491 39.4434 15.542 40.094 13.4977L40.9802 16.4826H42.5421V10.5723C42.5421 7.09515 40.8624 5.37695 37.4666 5.37695ZM36.5192 14.2126C35.6898 14.2126 35.2964 13.805 35.2964 13.2719C35.2964 12.4755 36.2225 11.861 38.4139 11.513L39.482 11.3687C39.482 12.9051 38.199 14.2126 36.5192 14.2126Z" fill="#3F5EFB"/>
<path d="M44.0017 12.8424C44.2373 15.1344 45.6998 16.7491 49.5283 16.7491C53.103 16.7491 54.7006 15.0905 54.7006 13.4162C54.7006 11.698 53.6542 10.4908 50.2002 10.0613C47.5938 9.73515 47.2404 9.34635 47.2404 8.79455C47.2404 8.32415 47.6942 7.81315 49.174 7.81315C50.7147 7.81315 51.2264 8.34305 51.3654 9.24285H54.4651C54.2469 7.05435 52.7275 5.37695 49.1345 5.37695C45.7567 5.37695 44.1986 6.97285 44.1986 8.71295C44.1986 10.4689 45.2238 11.5757 48.7773 12.024C51.2872 12.3533 51.6415 12.7389 51.6415 13.2939C51.6415 13.783 51.1472 14.2941 49.5283 14.2941C47.8515 14.2941 47.2791 13.7015 47.1005 12.8424H44.0017Z" fill="#3F5EFB"/>
<path d="M61.3327 5.37695C58.0186 5.37695 56.4779 7.01355 56.1816 9.38715H59.3595C59.5381 8.50605 60.071 7.95425 61.3153 7.95425C62.5191 7.95425 63.0915 8.42455 63.2489 9.59095L61.4331 9.85745C57.6219 10.4281 55.9451 11.7387 55.9451 13.946C55.9451 15.5012 57.1682 16.7491 59.3199 16.7491C61.63 16.7491 63.3097 15.542 63.9603 13.4977L64.8475 16.4826H66.4085V10.5723C66.4085 7.09515 64.7288 5.37695 61.3327 5.37695ZM60.3857 14.2126C59.5564 14.2126 59.1626 13.805 59.1626 13.2719C59.1626 12.4755 60.0893 11.861 62.2806 11.513L63.3493 11.3687C63.3493 12.9051 62.0654 14.2126 60.3857 14.2126Z" fill="#3F5EFB"/>
<path d="M84.3501 10.4498C84.1532 12.3718 82.7911 13.7827 80.6992 13.7827C78.3901 13.7827 76.9285 12.2495 76.9285 9.32412V8.71272C76.9285 5.78742 78.4084 4.23222 80.7571 4.23222C82.8905 4.23222 83.9563 5.35782 84.1744 6.70612H87.667C87.3523 3.74312 85.0432 1.28809 80.7967 1.28809C76.2953 1.28809 73.5923 4.09111 73.5923 8.65001V9.48722C73.5923 14.0273 76.2383 16.7488 79.8699 16.7488C82.4156 16.7488 84.41 15.2971 85.0818 12.5975L86.0868 16.4823H87.667V7.91322H80.5997V10.4498H84.3501Z" fill="black"/>
<path d="M93.0758 1.55469H89.9375V16.4825H93.0758V1.55469Z" fill="black"/>
<path d="M100.636 16.7491C104.15 16.7491 106.241 14.5794 106.241 11.2872V10.8388C106.241 7.54665 104.15 5.37695 100.636 5.37695C97.1215 5.37695 95.0093 7.54665 95.0093 10.8388V11.2872C95.0093 14.5794 97.1215 16.7491 100.636 16.7491ZM100.636 14.0088C99.0956 14.0088 98.1872 13.0462 98.1872 11.0427C98.1872 9.07985 99.0956 8.11725 100.636 8.11725C102.156 8.11725 103.084 9.07985 103.084 11.0427C103.084 13.0462 102.156 14.0088 100.636 14.0088Z" fill="black"/>
<path d="M114.871 5.37676C113.33 5.37676 112.026 6.19506 111.317 7.70956V1.55469H108.157V16.4825H109.738L110.703 13.2937C111.257 15.5011 112.855 16.749 114.871 16.749C117.317 16.749 119.351 14.642 119.351 11.2683V10.8575C119.351 7.48376 117.317 5.37676 114.871 5.37676ZM113.763 13.9271C112.265 13.9271 111.317 12.9457 111.317 11.0833C111.317 9.18316 112.265 8.19866 113.763 8.19866C115.264 8.19866 116.19 9.14236 116.19 11.0833C116.19 12.9865 115.264 13.9271 113.763 13.9271Z" fill="black"/>
<path d="M126.061 5.37695C122.747 5.37695 121.206 7.01355 120.91 9.38715H124.088C124.266 8.50605 124.799 7.95425 126.043 7.95425C127.248 7.95425 127.82 8.42455 127.977 9.59095L126.161 9.85745C122.35 10.4281 120.673 11.7387 120.673 13.946C120.673 15.5012 121.896 16.7491 124.048 16.7491C126.358 16.7491 128.038 15.542 128.688 13.4977L129.576 16.4826H131.137V10.5723C131.137 7.09515 129.457 5.37695 126.061 5.37695ZM125.114 14.2126C124.284 14.2126 123.891 13.805 123.891 13.2719C123.891 12.4755 124.817 11.861 127.009 11.513L128.077 11.3687C128.077 12.9051 126.793 14.2126 125.114 14.2126Z" fill="black"/>
<path d="M136.603 1.55469H133.465V16.4825H136.603V1.55469Z" fill="black"/>
</svg>
