<svg width="202" height="33" viewBox="0 0 202 33" fill="none" xmlns="http://www.w3.org/2000/svg">
<mask id="mask0_27_62" style="mask-type:luminance" maskUnits="userSpaceOnUse" x="0" y="0" width="44" height="33">
<path d="M0.237793 0.305664H43.5818V32.7196H0.237793V0.305664Z" fill="white"/>
</mask>
<g mask="url(#mask0_27_62)">
<path d="M18.1912 15.4466L20.8751 12.7878C21.4426 12.2234 22.3581 12.2297 22.9194 12.794L25.6378 15.5281C26.2021 16.0956 26.199 17.0143 25.6284 17.5787L22.9444 20.2375C22.3769 20.7988 21.4614 20.7956 20.9002 20.2281L18.1817 17.494C17.6174 16.9265 17.6205 16.0078 18.1912 15.4466ZM41.4748 11.4427L32.3789 2.29039C29.7608 -0.343361 25.5061 -0.359038 22.8692 2.25276L28.7889 8.20692L35.8937 15.3557L35.9188 15.3808C36.549 16.0455 36.5365 17.0833 35.8843 17.7292L28.7262 24.8246L28.7011 24.8466C28.121 25.4015 27.2839 24.4954 27.8545 23.931L31.8365 19.9867C33.7334 18.1086 33.746 15.0484 31.8616 13.1577L21.4206 2.65096C18.605 -0.18032 14.0273 -0.199132 11.1898 2.6102L2.38238 11.3361C-0.461443 14.1517 -0.480255 18.7419 2.34162 21.5826L11.4406 30.7349C14.0587 33.3655 18.3134 33.3843 20.9503 30.7694L15.0307 24.8152L7.9258 17.6665L7.90071 17.6414C7.2705 16.9798 7.2799 15.9389 7.9352 15.293L15.0934 8.20065L15.1184 8.17557C15.7016 7.62373 16.5357 8.52673 15.965 9.09111L11.983 13.0355C10.0892 14.9136 10.0767 17.9737 11.9579 19.8675L22.3989 30.3712C25.2145 33.2056 29.7922 33.2244 32.6297 30.4119L41.4371 21.6892C44.281 18.8705 44.2966 14.2802 41.4748 11.4427Z" fill="#3F5EFB"/>
</g>
<path d="M69.9877 18.9204L63.2779 9.55493H59.6597V24.4827H62.8484V14.4023L70.2542 24.4827H73.1764V9.55493H69.9877V18.9204Z" fill="#3F5EFB"/>
<path d="M79.3314 10.4955C79.3314 11.5584 78.6353 12.2325 77.5129 12.2325C76.3653 12.2325 75.6724 11.5584 75.6724 10.4955C75.6724 9.45143 76.3653 8.75537 77.5129 8.75537C78.6353 8.75537 79.3314 9.45143 79.3314 10.4955ZM79.1495 24.4826V13.6435H75.8762V24.4826H79.1495Z" fill="#3F5EFB"/>
<path d="M86.4059 20.8425L83.8913 13.6436H80.436L84.6061 24.3604C84.1358 25.6491 83.6248 26.0379 82.6841 26.0379C82.2546 26.0379 81.7435 25.9751 81.2732 25.9156V28.5713C81.7435 28.6967 82.4396 28.819 83.1764 28.819C85.7318 28.819 87.0612 27.6118 88.3091 24.2162L92.1938 13.6436H88.9017L86.4059 20.8425Z" fill="#3F5EFB"/>
<path d="M98.4712 13.377C95.0379 13.377 93.442 15.0136 93.1347 17.3872H96.4269C96.6119 16.5061 97.1637 15.9543 98.4524 15.9543C99.7003 15.9543 100.293 16.4246 100.456 17.591L98.5746 17.8575C94.6272 18.4281 92.8901 19.7387 92.8901 21.946C92.8901 23.5012 94.1568 24.7491 96.3861 24.7491C98.7784 24.7491 100.519 23.542 101.193 21.4977L102.111 24.4826H103.729V18.5723C103.729 15.0952 101.989 13.377 98.4712 13.377ZM97.4898 22.2126C96.6307 22.2126 96.2231 21.805 96.2231 21.2719C96.2231 20.4755 97.1825 19.861 99.4526 19.513L100.559 19.3687C100.559 20.9051 99.2299 22.2126 97.4898 22.2126Z" fill="#3F5EFB"/>
<path d="M105.241 20.8424C105.485 23.1344 107 24.7491 110.966 24.7491C114.669 24.7491 116.324 23.0905 116.324 21.4162C116.324 19.698 115.24 18.4908 111.662 18.0613C108.962 17.7352 108.596 17.3464 108.596 16.7946C108.596 16.3242 109.066 15.8132 110.599 15.8132C112.195 15.8132 112.725 16.3431 112.869 17.2429H116.08C115.854 15.0544 114.28 13.377 110.558 13.377C107.059 13.377 105.445 14.9729 105.445 16.713C105.445 18.4689 106.507 19.5757 110.188 20.024C112.788 20.3533 113.155 20.7389 113.155 21.2939C113.155 21.783 112.643 22.2941 110.966 22.2941C109.229 22.2941 108.636 21.7015 108.451 20.8424H105.241Z" fill="#3F5EFB"/>
<path d="M123.194 13.377C119.761 13.377 118.165 15.0136 117.858 17.3872H121.15C121.335 16.5061 121.887 15.9543 123.176 15.9543C124.423 15.9543 125.016 16.4246 125.179 17.591L123.298 17.8575C119.35 18.4281 117.613 19.7387 117.613 21.946C117.613 23.5012 118.88 24.7491 121.109 24.7491C123.502 24.7491 125.242 23.542 125.916 21.4977L126.835 24.4826H128.452V18.5723C128.452 15.0952 126.712 13.377 123.194 13.377ZM122.213 22.2126C121.354 22.2126 120.946 21.805 120.946 21.2719C120.946 20.4755 121.906 19.861 124.176 19.513L125.283 19.3687C125.283 20.9051 123.953 22.2126 122.213 22.2126Z" fill="#3F5EFB"/>
<path d="M147.46 18.4503C147.256 20.3723 145.845 21.7832 143.678 21.7832C141.286 21.7832 139.772 20.25 139.772 17.3246V16.7132C139.772 13.7879 141.305 12.2327 143.738 12.2327C145.948 12.2327 147.052 13.3583 147.278 14.7066H150.896C150.57 11.7436 148.178 9.28857 143.779 9.28857C139.116 9.28857 136.316 12.0916 136.316 16.6505V17.4877C136.316 22.0278 139.057 24.7493 142.819 24.7493C145.456 24.7493 147.522 23.2976 148.218 20.598L149.259 24.4828H150.896V15.9137H143.575V18.4503H147.46Z" fill="white"/>
<path d="M156.499 9.55493H153.248V24.4827H156.499V9.55493Z" fill="white"/>
<path d="M164.331 24.7491C167.971 24.7491 170.137 22.5794 170.137 19.2872V18.8388C170.137 15.5467 167.971 13.377 164.331 13.377C160.69 13.377 158.502 15.5467 158.502 18.8388V19.2872C158.502 22.5794 160.69 24.7491 164.331 24.7491ZM164.331 22.0088C162.735 22.0088 161.794 21.0462 161.794 19.0427C161.794 17.0799 162.735 16.1173 164.331 16.1173C165.905 16.1173 166.867 17.0799 166.867 19.0427C166.867 21.0462 165.905 22.0088 164.331 22.0088Z" fill="white"/>
<path d="M179.076 13.377C177.48 13.377 176.129 14.1953 175.395 15.7098V9.55493H172.122V24.4827H173.759L174.759 21.2939C175.333 23.5013 176.988 24.7492 179.076 24.7492C181.61 24.7492 183.717 22.6422 183.717 19.2685V18.8577C183.717 15.484 181.61 13.377 179.076 13.377ZM177.929 21.9273C176.377 21.9273 175.395 20.9459 175.395 19.0835C175.395 17.1834 176.377 16.1989 177.929 16.1989C179.484 16.1989 180.443 17.1426 180.443 19.0835C180.443 20.9867 179.484 21.9273 177.929 21.9273Z" fill="white"/>
<path d="M190.668 13.377C187.235 13.377 185.639 15.0136 185.332 17.3872H188.624C188.809 16.5061 189.361 15.9543 190.65 15.9543C191.898 15.9543 192.49 16.4246 192.653 17.591L190.772 17.8575C186.824 18.4281 185.087 19.7387 185.087 21.946C185.087 23.5012 186.354 24.7491 188.583 24.7491C190.976 24.7491 192.716 23.542 193.39 21.4977L194.309 24.4826H195.927V18.5723C195.927 15.0952 194.186 13.377 190.668 13.377ZM189.687 22.2126C188.828 22.2126 188.42 21.805 188.42 21.2719C188.42 20.4755 189.38 19.861 191.65 19.513L192.757 19.3687C192.757 20.9051 191.427 22.2126 189.687 22.2126Z" fill="white"/>
<path d="M201.589 9.55493H198.338V24.4827H201.589V9.55493Z" fill="white"/>
</svg>
