<svg width="347" height="145" viewBox="0 0 347 145" fill="none" xmlns="http://www.w3.org/2000/svg">
<path d="M67.5625 41.6875H0.375V34.1875H67.5625V41.6875ZM54.125 69.125C54.125 59.125 49.3958 54.125 39.9375 54.125C32.9375 54.125 27.0833 57.7917 22.375 65.125C18.2083 71.625 16.125 78.5417 16.125 85.875V104.062L5.875 98.6875V51.6875H16.625V59.125L22.1875 54.9375C27.1042 51.2292 32.2917 49.375 37.75 49.375C45.1667 49.375 51.3125 52.25 56.1875 58C60.7708 63.4167 63.0625 69.8958 63.0625 77.4375C63.0625 86.8958 59.0625 95.9792 51.0625 104.688L39 97.125C42.75 93.4167 45.9375 90 48.5625 86.875C52.2708 82.4583 54.125 76.5417 54.125 69.125ZM87.75 27.625C87.5833 27.7917 87.1042 27.875 86.3125 27.875C85.6458 27.875 85.0625 27.7917 84.5625 27.625L80.5 19.3125C78.8333 16.6875 76.5625 14.9167 73.6875 14C70.8542 13.0417 69.1042 12 68.4375 10.875C67.8125 8.95833 66.6042 6.02083 64.8125 2.0625V0.625H67.25C70.4583 1.625 73.0625 2.5625 75.0625 3.4375C78.3542 4.89583 80.5625 6.58333 81.6875 8.5C82.3125 9.54167 83.2708 12.2083 84.5625 16.5C85.7708 20.5417 86.7917 23.3542 87.625 24.9375C87.7083 25.6875 87.75 26.5833 87.75 27.625ZM91.4375 41.6875H66V34.1875H91.4375V41.6875ZM84.3125 103.438L73.8125 97.625V49.375H84.3125V103.438ZM162.812 34.1875L162.688 41.6875H109.938L110.062 78.5625C110.062 83.9792 111 87.9167 112.875 90.375C115 93.0833 118.708 94.5625 124 94.8125C127.375 94.9792 130.75 93.875 134.125 91.5C137.125 89.4167 139.604 86.7708 141.562 83.5625C143.688 80.0625 144.75 76.6458 144.75 73.3125L144.625 49.75L157.688 54.25V118.25C157.688 126.042 154.104 132.396 146.938 137.312C140.312 141.854 132.542 144.125 123.625 144.125C108.542 144.125 97.8125 140.021 91.4375 131.812C88.8542 128.479 87.5625 125.625 87.5625 123.25C87.6042 118.042 90.5208 113.667 96.3125 110.125C101.438 107 106.75 105.438 112.25 105.438L120.188 116.062C113.021 116.562 106.604 118.083 100.938 120.625C97.2292 122.292 95.375 124.438 95.375 127.062C95.8333 130.854 98.6875 134.208 103.938 137.125C107.062 138.875 111.104 139.75 116.062 139.75C127.438 139.75 136.021 136.062 141.812 128.688C144.562 125.188 145.938 121.104 145.938 116.438V91C143.229 95.4167 136 97.625 124.25 97.625C114.375 97.625 106.896 94.25 101.812 87.5C99.3125 84.2083 98.0625 80.4583 98.0625 76.25V41.6875H89.1875V34.1875H162.812ZM223.062 41.6875H181.438V51.6875C181.604 51.6875 181.771 51.7708 181.938 51.9375C182.104 52.1042 182.25 52.1875 182.375 52.1875C182.042 52.1875 181.854 52.1667 181.812 52.125C181.812 51.9167 184.917 51.25 191.125 50.125C193.417 49.7083 195.688 49.5 197.938 49.5C207.312 49.5 213.333 52.125 216 57.375C217.792 60.875 218.688 67.9375 218.688 78.5625V102.625C217.812 102.292 214.5 100.938 208.75 98.5625C208.75 97.2292 208.479 96.375 207.938 96C205.729 97.2917 203.917 98.2708 202.5 98.9375C198 101.062 192.771 102.125 186.812 102.125C178.604 102.125 172.271 99.5417 167.812 94.375C165.646 91.875 164.562 89.0833 164.562 86C164.562 82.5417 166.271 79.1042 169.688 75.6875C176.312 69.0625 184.542 65.75 194.375 65.75C200.333 65.75 205.125 67.125 208.75 69.875V64.125C206.917 61.7917 205.125 60.2292 203.375 59.4375C201.667 58.6458 199.312 58.2917 196.312 58.375C189.604 58.5 183.458 59.7292 177.875 62.0625C175.375 63.1042 172.938 64.0417 170.562 64.875V60.25C171.104 59.7917 171.896 59.1042 172.938 58.1875C173.104 57.9792 173.208 57.8542 173.25 57.8125V41.6875H160.438V34.1875H223.062V41.6875ZM208.75 81.25C208.75 79.4167 206.562 77.7708 202.188 76.3125C198.562 75.1042 195.542 74.5 193.125 74.5C184.333 74.5 177.292 77.6667 172 84C169.875 86.5417 168.812 88.625 168.812 90.25C169.688 93.2917 173.125 94.8125 179.125 94.8125C186.875 94.8125 193.958 92.875 200.375 89C205.958 85.625 208.75 83.0417 208.75 81.25ZM286.375 41.6875H279.562V65.375C277.104 63.9167 273.562 62.6667 268.938 61.625C264.604 60.625 260.854 60.125 257.688 60.125C250.062 60.125 243.667 61.4792 238.5 64.1875C235.583 65.7292 234.125 67.75 234.125 70.25C234.125 73.5833 235.875 75.25 239.375 75.25C241.5 75.25 244.271 74.625 247.688 73.375C249.896 72.5833 252.729 71.5833 256.188 70.375C257.646 69.875 260.229 69.625 263.938 69.625C271.146 69.625 276.521 71.8542 280.062 76.3125C281.771 78.4375 282.625 80.9375 282.625 83.8125C282.625 90.4375 278.458 95.6458 270.125 99.4375C266.667 101.021 263.375 101.917 260.25 102.125C263.25 105.125 266.104 106.625 268.812 106.625C269.688 106.625 270.625 106.5 271.625 106.25L277.938 116.562C276.646 117.688 274 118.25 270 118.25C266.75 118.25 264 117.146 261.75 114.938C260.542 113.729 258.833 111.208 256.625 107.375C254.75 104.083 253.188 102.417 251.938 102.375C244.229 102.167 238.292 100.771 234.125 98.1875C231.5 96.5625 230.188 94.3333 230.188 91.5C230.188 88 232.271 86.25 236.438 86.25C237.979 86.25 241.188 87.4583 246.062 89.875C250.979 92.25 255.021 93.4375 258.188 93.4375C264.521 93.4375 270.458 91.9375 276 88.9375C278.708 87.4792 280.062 85.6875 280.062 83.5625C280.062 80.3958 277.562 78.8125 272.562 78.8125C271.021 78.8125 266.042 79.9375 257.625 82.1875C252.667 83.5208 249.625 84.1875 248.5 84.1875C241.875 84.1875 236.417 81.0625 232.125 74.8125C230.042 71.8125 229 68.5833 229 65.125C228.958 58.0833 233.771 53.3333 243.438 50.875C247.396 49.875 251.125 49.375 254.625 49.375C258.625 49.375 264.292 50.3542 271.625 52.3125V41.6875H221.875V34.1875H286.375V41.6875ZM346.812 41.6875H305.188V51.6875C305.354 51.6875 305.521 51.7708 305.688 51.9375C305.854 52.1042 306 52.1875 306.125 52.1875C305.792 52.1875 305.604 52.1667 305.562 52.125C305.562 51.9167 308.667 51.25 314.875 50.125C317.167 49.7083 319.438 49.5 321.688 49.5C331.062 49.5 337.083 52.125 339.75 57.375C341.542 60.875 342.438 67.9375 342.438 78.5625V102.625C341.562 102.292 338.25 100.938 332.5 98.5625C332.5 97.2292 332.229 96.375 331.688 96C329.479 97.2917 327.667 98.2708 326.25 98.9375C321.75 101.062 316.521 102.125 310.562 102.125C302.354 102.125 296.021 99.5417 291.562 94.375C289.396 91.875 288.312 89.0833 288.312 86C288.312 82.5417 290.021 79.1042 293.438 75.6875C300.062 69.0625 308.292 65.75 318.125 65.75C324.083 65.75 328.875 67.125 332.5 69.875V64.125C330.667 61.7917 328.875 60.2292 327.125 59.4375C325.417 58.6458 323.062 58.2917 320.062 58.375C313.354 58.5 307.208 59.7292 301.625 62.0625C299.125 63.1042 296.688 64.0417 294.312 64.875V60.25C294.854 59.7917 295.646 59.1042 296.688 58.1875C296.854 57.9792 296.958 57.8542 297 57.8125V41.6875H284.188V34.1875H346.812V41.6875ZM332.5 81.25C332.5 79.4167 330.312 77.7708 325.938 76.3125C322.312 75.1042 319.292 74.5 316.875 74.5C308.083 74.5 301.042 77.6667 295.75 84C293.625 86.5417 292.562 88.625 292.562 90.25C293.438 93.2917 296.875 94.8125 302.875 94.8125C310.625 94.8125 317.708 92.875 324.125 89C329.708 85.625 332.5 83.0417 332.5 81.25Z" fill="black"/>
</svg>
